<svg width="281" height="247" viewBox="0 0 281 247" fill="none" xmlns="http://www.w3.org/2000/svg">
<g filter="url(#filter0_d_8_210)">
<path d="M124.47 107.952C124.196 108.115 123.894 108.193 123.597 108.193C123.006 108.193 122.431 107.886 122.109 107.333C121.626 106.502 121.9 105.433 122.721 104.944L129.759 100.755C130.58 100.266 131.638 100.543 132.121 101.374C132.604 102.205 132.33 103.274 131.509 103.763L124.47 107.952Z" fill="#FF7F22"/>
<path fill-rule="evenodd" clip-rule="evenodd" d="M190.974 122.041L189.555 113.848C189.424 113.09 188.816 112.508 188.061 112.417L180.653 111.522L178.079 106.71C178.911 105.27 179.185 103.556 178.829 101.912C178.427 100.05 177.253 98.448 175.61 97.5159L168.466 93.4632C167.635 92.9919 166.584 93.291 166.118 94.1315C165.652 94.972 165.948 96.0354 166.779 96.5067L173.923 100.559C175.566 101.492 176.045 103.664 174.93 105.215C174.11 106.356 172.621 106.818 171.308 106.338L150.966 98.8886C152.398 97.9386 153.582 96.5705 154.313 94.8657C155.007 93.248 155.224 91.5039 154.961 89.8032L160.664 93.0384C160.931 93.1898 161.221 93.2617 161.506 93.2617C162.11 93.2617 162.696 92.9405 163.013 92.37C163.478 91.5295 163.182 90.4662 162.352 89.9949L151.15 83.6403C150.664 83.3011 150.142 83.0075 149.588 82.7646C147.36 81.7869 144.888 81.7455 142.629 82.6483C140.369 83.5512 138.593 85.2896 137.626 87.5441C137.394 88.084 137.218 88.6344 137.095 89.1888L104.59 103.651C99.8734 103.77 95.4621 106.151 92.7295 110.071C92.1806 110.859 92.3669 111.947 93.1455 112.502C93.9245 113.058 95.0003 112.869 95.549 112.082C97.7017 108.993 101.207 107.146 104.931 107.135L104.964 107.135L104.987 107.135C111.325 107.149 116.477 112.368 116.477 118.782C116.477 125.204 111.312 130.429 104.963 130.429C98.6145 130.429 93.4496 125.204 93.4496 118.782C93.4496 118.475 93.4643 118.148 93.4951 117.783C93.5756 116.823 92.871 115.978 91.9219 115.897C90.9751 115.814 90.1382 116.528 90.0577 117.488C90.0189 117.953 90 118.376 90 118.782C90 124.367 93.006 129.256 97.4674 131.879L105.35 149H109.155L102.082 133.637C103.015 133.822 103.978 133.919 104.963 133.919C109.194 133.919 113.02 132.134 115.744 129.269L124.705 149H128.502L118.226 126.374L145.548 100.616L170.134 109.618C170.862 109.885 171.615 110.013 172.362 110.013C173.457 110.013 174.537 109.737 175.499 109.218L177.619 113.182L174.308 119.945C173.97 120.635 174.12 121.467 174.676 121.993L180.679 127.676C181.011 127.991 181.434 128.147 181.857 128.147C182.317 128.147 182.777 127.961 183.117 127.594C183.767 126.891 183.731 125.786 183.035 125.128L177.968 120.332L180.567 115.025L186.379 115.728L187.576 122.643C187.741 123.592 188.635 124.227 189.573 124.06C190.511 123.894 191.138 122.989 190.974 122.041ZM145.977 85.4946C148.229 85.4946 150.346 86.869 151.22 89.1071C152.773 93.0866 149.596 97.3223 145.389 96.8852C141.916 96.383 140.074 93.4855 140.352 90.6404C140.356 90.6078 140.359 90.5753 140.362 90.5425C140.693 87.6629 143.112 85.4946 145.977 85.4946ZM110.633 104.774L137.056 93.0179C137.589 95.679 139.273 98.0644 141.799 99.3804L119.874 120.051C119.909 119.632 119.926 119.209 119.926 118.782C119.926 112.465 116.08 107.039 110.633 104.774Z" fill="#FF7F22"/>
<path d="M119.135 149L113.955 137.593C113.557 136.718 112.533 136.333 111.667 136.736C110.802 137.138 110.423 138.174 110.82 139.05L115.339 149H119.135Z" fill="#FF7F22"/>
<path fill-rule="evenodd" clip-rule="evenodd" d="M112.588 118.782C112.588 114.529 109.167 111.069 104.963 111.069C100.759 111.069 97.3383 114.53 97.3383 118.782C97.3383 123.035 100.759 126.495 104.963 126.495C109.167 126.495 112.588 123.035 112.588 118.782ZM100.788 118.782C100.788 116.453 102.661 114.559 104.963 114.559C107.265 114.559 109.138 116.454 109.138 118.782C109.138 121.111 107.265 123.006 104.963 123.006C102.661 123.006 100.788 121.111 100.788 118.782Z" fill="#FF7F22"/>
</g>
<defs>
<filter id="filter0_d_8_210" x="0" y="0" width="281" height="247" filterUnits="userSpaceOnUse" color-interpolation-filters="sRGB">
<feFlood flood-opacity="0" result="BackgroundImageFix"/>
<feColorMatrix in="SourceAlpha" type="matrix" values="0 0 0 0 0 0 0 0 0 0 0 0 0 0 0 0 0 0 127 0" result="hardAlpha"/>
<feOffset dy="8"/>
<feGaussianBlur stdDeviation="45"/>
<feColorMatrix type="matrix" values="0 0 0 0 1 0 0 0 0 0.497333 0 0 0 0 0.133333 0 0 0 1 0"/>
<feBlend mode="normal" in2="BackgroundImageFix" result="effect1_dropShadow_8_210"/>
<feBlend mode="normal" in="SourceGraphic" in2="effect1_dropShadow_8_210" result="shape"/>
</filter>
</defs>
</svg>
