<svg width="88" height="224" viewBox="0 0 88 224" fill="none" xmlns="http://www.w3.org/2000/svg">
<rect x="0.5" y="0.5" width="87" height="223" rx="4.5" stroke="#9747FF" stroke-dasharray="10 5"/>
<g clip-path="url(#clip0_6053_45)">
<rect x="21" y="21" width="46" height="46" rx="3" stroke="#FF7F22" stroke-width="2"/>
<path d="M38.2864 41.2962C38.1887 41.3547 38.0812 41.3826 37.9753 41.3826C37.7645 41.3826 37.5595 41.2725 37.4449 41.0744C37.2726 40.7768 37.3704 40.3938 37.663 40.2188L40.1717 38.7182C40.4641 38.5431 40.8411 38.6424 41.0133 38.94C41.1855 39.2375 41.0878 39.6205 40.7951 39.7956L38.2864 41.2962Z" fill="#FF7F22"/>
<path fill-rule="evenodd" clip-rule="evenodd" d="M61.9907 46.3429L61.485 43.4084C61.4382 43.1367 61.2217 42.9283 60.9524 42.8956L58.3119 42.575L57.3946 40.8515C57.6912 40.3357 57.7888 39.7216 57.662 39.1327C57.5184 38.4658 57.1002 37.8918 56.5143 37.5579L53.9679 36.1062C53.6719 35.9374 53.2972 36.0445 53.131 36.3456C52.965 36.6467 53.0704 37.0276 53.3666 37.1964L55.913 38.6482C56.4988 38.9822 56.6693 39.7603 56.272 40.3158C55.9796 40.7245 55.4491 40.89 54.9812 40.7179L47.7304 38.0497C48.241 37.7093 48.6629 37.2193 48.9235 36.6086C49.1707 36.0291 49.248 35.4044 49.1545 34.7952L51.1873 35.9541C51.2824 36.0083 51.3856 36.0341 51.4874 36.0341C51.7026 36.0341 51.9115 35.919 52.0243 35.7146C52.1903 35.4136 52.0848 35.0327 51.7888 34.8638L47.7962 32.5876C47.623 32.4661 47.4368 32.3609 47.2394 32.2739C46.445 31.9237 45.564 31.9088 44.7587 32.2322C43.9533 32.5556 43.3201 33.1784 42.9755 33.9859C42.893 34.1793 42.8303 34.3765 42.7863 34.5751L31.2003 39.7555C29.5192 39.7983 27.9469 40.6511 26.9729 42.0553C26.7772 42.3374 26.8436 42.7273 27.1212 42.9262C27.3988 43.1252 27.7823 43.0576 27.9779 42.7755C28.7452 41.6692 29.9946 41.0074 31.3221 41.0037L31.3337 41.0038L31.3421 41.0037C33.601 41.0084 35.4372 42.8781 35.4372 45.1757C35.4372 47.4761 33.5962 49.3476 31.3334 49.3476C29.0705 49.3476 27.2296 47.4761 27.2296 45.1757C27.2296 45.0658 27.2348 44.9487 27.2458 44.8177C27.2745 44.4738 27.0233 44.1713 26.685 44.1422C26.3476 44.1124 26.0493 44.3682 26.0206 44.7122C26.0067 44.8786 26 45.0302 26 45.1757C26 47.1764 27.0714 48.9274 28.6616 49.8669L31.4712 56H32.8274L30.3065 50.4969C30.6388 50.563 30.9822 50.5978 31.3334 50.5978C32.8413 50.5978 34.205 49.9583 35.176 48.9321L38.37 56H39.7234L36.0608 47.8952L45.7993 38.6683L54.5628 41.8932C54.822 41.9886 55.0905 42.0344 55.3567 42.0344C55.7469 42.0344 56.1319 41.9357 56.4748 41.7498L57.2307 43.1698L56.0505 45.5922C55.93 45.8394 55.9832 46.1375 56.1814 46.326L58.3211 48.3615C58.4396 48.4743 58.5905 48.5302 58.741 48.5302C58.9052 48.5302 59.069 48.4637 59.1901 48.3322C59.4221 48.0802 59.4092 47.6847 59.1611 47.4488L57.3551 45.7307L58.2812 43.8299L60.3529 44.0816L60.7797 46.5585C60.8384 46.8986 61.1572 47.1261 61.4914 47.0664C61.8257 47.0068 62.0493 46.6828 61.9907 46.3429ZM45.9522 33.2518C46.7547 33.2518 47.5093 33.7441 47.8209 34.5458C48.3746 35.9713 47.2421 37.4886 45.7426 37.332C44.5048 37.1521 43.8482 36.1142 43.9471 35.0951C43.9487 35.0834 43.9499 35.0717 43.9508 35.06C44.0687 34.0285 44.9309 33.2518 45.9522 33.2518ZM33.3542 40.1579L42.7725 35.9467C42.9625 36.8999 43.5628 37.7544 44.463 38.2258L36.6483 45.6301C36.6606 45.4802 36.6668 45.3287 36.6668 45.1757C36.6668 42.9127 35.296 40.9691 33.3542 40.1579Z" fill="#FF7F22"/>
<path d="M36.3849 56L34.5383 51.9139C34.3966 51.6003 34.0315 51.4626 33.723 51.6069C33.4145 51.751 33.2793 52.1221 33.421 52.4357L35.0317 56H36.3849Z" fill="#FF7F22"/>
<path fill-rule="evenodd" clip-rule="evenodd" d="M34.0511 45.1757C34.0511 43.6523 32.8319 42.4129 31.3334 42.4129C29.8348 42.4129 28.6156 43.6524 28.6156 45.1757C28.6156 46.6991 29.8348 47.9386 31.3334 47.9386C32.8319 47.9386 34.0511 46.6992 34.0511 45.1757ZM29.8451 45.1757C29.8451 44.3415 30.5128 43.6629 31.3333 43.6629C32.1538 43.6629 32.8214 44.3416 32.8214 45.1757C32.8214 46.0099 32.1538 46.6886 31.3333 46.6886C30.5128 46.6886 29.8451 46.01 29.8451 45.1757Z" fill="#FF7F22"/>
</g>
<g clip-path="url(#clip1_6053_45)">
<rect width="48" height="48" transform="translate(20 88)" fill="#333940"/>
<path d="M38.2864 109.296C38.1887 109.355 38.0812 109.383 37.9753 109.383C37.7645 109.383 37.5595 109.272 37.4449 109.074C37.2726 108.777 37.3704 108.394 37.663 108.219L40.1717 106.718C40.4641 106.543 40.8411 106.642 41.0133 106.94C41.1855 107.238 41.0878 107.621 40.7951 107.796L38.2864 109.296Z" fill="white"/>
<path fill-rule="evenodd" clip-rule="evenodd" d="M61.9907 114.343L61.485 111.408C61.4382 111.137 61.2217 110.928 60.9524 110.896L58.3119 110.575L57.3946 108.852C57.6912 108.336 57.7888 107.722 57.662 107.133C57.5184 106.466 57.1002 105.892 56.5143 105.558L53.9679 104.106C53.6719 103.937 53.2972 104.045 53.131 104.346C52.965 104.647 53.0704 105.028 53.3666 105.196L55.913 106.648C56.4988 106.982 56.6693 107.76 56.272 108.316C55.9796 108.725 55.4491 108.89 54.9812 108.718L47.7304 106.05C48.241 105.709 48.6629 105.219 48.9235 104.609C49.1707 104.029 49.248 103.404 49.1545 102.795L51.1873 103.954C51.2824 104.008 51.3856 104.034 51.4874 104.034C51.7026 104.034 51.9115 103.919 52.0243 103.715C52.1903 103.414 52.0848 103.033 51.7888 102.864L47.7962 100.588C47.623 100.466 47.4368 100.361 47.2394 100.274C46.445 99.9237 45.564 99.9088 44.7587 100.232C43.9533 100.556 43.3201 101.178 42.9755 101.986C42.893 102.179 42.8303 102.377 42.7863 102.575L31.2003 107.755C29.5192 107.798 27.9469 108.651 26.9729 110.055C26.7772 110.337 26.8436 110.727 27.1212 110.926C27.3988 111.125 27.7823 111.058 27.9779 110.776C28.7452 109.669 29.9946 109.007 31.3221 109.004L31.3337 109.004L31.3421 109.004C33.601 109.008 35.4372 110.878 35.4372 113.176C35.4372 115.476 33.5962 117.348 31.3334 117.348C29.0705 117.348 27.2296 115.476 27.2296 113.176C27.2296 113.066 27.2348 112.949 27.2458 112.818C27.2745 112.474 27.0233 112.171 26.685 112.142C26.3476 112.112 26.0493 112.368 26.0206 112.712C26.0067 112.879 26 113.03 26 113.176C26 115.176 27.0714 116.927 28.6616 117.867L31.4712 124H32.8274L30.3065 118.497C30.6388 118.563 30.9822 118.598 31.3334 118.598C32.8413 118.598 34.205 117.958 35.176 116.932L38.37 124H39.7234L36.0608 115.895L45.7993 106.668L54.5628 109.893C54.822 109.989 55.0905 110.034 55.3567 110.034C55.7469 110.034 56.1319 109.936 56.4748 109.75L57.2307 111.17L56.0505 113.592C55.93 113.839 55.9832 114.137 56.1814 114.326L58.3211 116.361C58.4396 116.474 58.5905 116.53 58.741 116.53C58.9052 116.53 59.069 116.464 59.1901 116.332C59.4221 116.08 59.4092 115.685 59.1611 115.449L57.3551 113.731L58.2812 111.83L60.3529 112.082L60.7797 114.559C60.8384 114.899 61.1572 115.126 61.4914 115.066C61.8257 115.007 62.0493 114.683 61.9907 114.343ZM45.9522 101.252C46.7547 101.252 47.5093 101.744 47.8209 102.546C48.3746 103.971 47.2421 105.489 45.7426 105.332C44.5048 105.152 43.8482 104.114 43.9471 103.095C43.9487 103.083 43.9499 103.072 43.9508 103.06C44.0687 102.029 44.9309 101.252 45.9522 101.252ZM33.3542 108.158L42.7725 103.947C42.9625 104.9 43.5628 105.754 44.463 106.226L36.6483 113.63C36.6606 113.48 36.6668 113.329 36.6668 113.176C36.6668 110.913 35.296 108.969 33.3542 108.158Z" fill="white"/>
<path d="M36.3849 124L34.5383 119.914C34.3966 119.6 34.0315 119.463 33.723 119.607C33.4145 119.751 33.2793 120.122 33.421 120.436L35.0317 124H36.3849Z" fill="white"/>
<path fill-rule="evenodd" clip-rule="evenodd" d="M34.0511 113.176C34.0511 111.652 32.8319 110.413 31.3334 110.413C29.8348 110.413 28.6156 111.652 28.6156 113.176C28.6156 114.699 29.8348 115.939 31.3334 115.939C32.8319 115.939 34.0511 114.699 34.0511 113.176ZM29.8451 113.176C29.8451 112.342 30.5128 111.663 31.3333 111.663C32.1538 111.663 32.8214 112.342 32.8214 113.176C32.8214 114.01 32.1538 114.689 31.3333 114.689C30.5128 114.689 29.8451 114.01 29.8451 113.176Z" fill="white"/>
</g>
<g clip-path="url(#clip2_6053_45)">
<rect x="20" y="156" width="48" height="48" rx="4" fill="#333940"/>
<path d="M38.2864 177.296C38.1887 177.355 38.0812 177.383 37.9753 177.383C37.7645 177.383 37.5595 177.272 37.4449 177.074C37.2726 176.777 37.3704 176.394 37.663 176.219L40.1717 174.718C40.4641 174.543 40.8411 174.642 41.0133 174.94C41.1855 175.238 41.0878 175.621 40.7951 175.796L38.2864 177.296Z" fill="#4C5865"/>
<path fill-rule="evenodd" clip-rule="evenodd" d="M61.9907 182.343L61.485 179.408C61.4382 179.137 61.2217 178.928 60.9524 178.896L58.3119 178.575L57.3946 176.852C57.6912 176.336 57.7888 175.722 57.662 175.133C57.5184 174.466 57.1002 173.892 56.5143 173.558L53.9679 172.106C53.6719 171.937 53.2972 172.045 53.131 172.346C52.965 172.647 53.0704 173.028 53.3666 173.196L55.913 174.648C56.4988 174.982 56.6693 175.76 56.272 176.316C55.9796 176.725 55.4491 176.89 54.9812 176.718L47.7304 174.05C48.241 173.709 48.6629 173.219 48.9235 172.609C49.1707 172.029 49.248 171.404 49.1545 170.795L51.1873 171.954C51.2824 172.008 51.3856 172.034 51.4874 172.034C51.7026 172.034 51.9115 171.919 52.0243 171.715C52.1903 171.414 52.0848 171.033 51.7888 170.864L47.7962 168.588C47.623 168.466 47.4368 168.361 47.2394 168.274C46.445 167.924 45.564 167.909 44.7587 168.232C43.9533 168.556 43.3201 169.178 42.9755 169.986C42.893 170.179 42.8303 170.377 42.7863 170.575L31.2003 175.755C29.5192 175.798 27.9469 176.651 26.9729 178.055C26.7772 178.337 26.8436 178.727 27.1212 178.926C27.3988 179.125 27.7823 179.058 27.9779 178.776C28.7452 177.669 29.9946 177.007 31.3221 177.004L31.3337 177.004L31.3421 177.004C33.601 177.008 35.4372 178.878 35.4372 181.176C35.4372 183.476 33.5962 185.348 31.3334 185.348C29.0705 185.348 27.2296 183.476 27.2296 181.176C27.2296 181.066 27.2348 180.949 27.2458 180.818C27.2745 180.474 27.0233 180.171 26.685 180.142C26.3476 180.112 26.0493 180.368 26.0206 180.712C26.0067 180.879 26 181.03 26 181.176C26 183.176 27.0714 184.927 28.6616 185.867L31.4712 192H32.8274L30.3065 186.497C30.6388 186.563 30.9822 186.598 31.3334 186.598C32.8413 186.598 34.205 185.958 35.176 184.932L38.37 192H39.7234L36.0608 183.895L45.7993 174.668L54.5628 177.893C54.822 177.989 55.0905 178.034 55.3567 178.034C55.7469 178.034 56.1319 177.936 56.4748 177.75L57.2307 179.17L56.0505 181.592C55.93 181.839 55.9832 182.137 56.1814 182.326L58.3211 184.361C58.4396 184.474 58.5905 184.53 58.741 184.53C58.9052 184.53 59.069 184.464 59.1901 184.332C59.4221 184.08 59.4092 183.685 59.1611 183.449L57.3551 181.731L58.2812 179.83L60.3529 180.082L60.7797 182.559C60.8384 182.899 61.1572 183.126 61.4914 183.066C61.8257 183.007 62.0493 182.683 61.9907 182.343ZM45.9522 169.252C46.7547 169.252 47.5093 169.744 47.8209 170.546C48.3746 171.971 47.2421 173.489 45.7426 173.332C44.5048 173.152 43.8482 172.114 43.9471 171.095C43.9487 171.083 43.9499 171.072 43.9508 171.06C44.0687 170.029 44.9309 169.252 45.9522 169.252ZM33.3542 176.158L42.7725 171.947C42.9625 172.9 43.5628 173.754 44.463 174.226L36.6483 181.63C36.6606 181.48 36.6668 181.329 36.6668 181.176C36.6668 178.913 35.296 176.969 33.3542 176.158Z" fill="#4C5865"/>
<path d="M36.3849 192L34.5383 187.914C34.3966 187.6 34.0315 187.463 33.723 187.607C33.4145 187.751 33.2793 188.122 33.421 188.436L35.0317 192H36.3849Z" fill="#4C5865"/>
<path fill-rule="evenodd" clip-rule="evenodd" d="M34.0511 181.176C34.0511 179.652 32.8319 178.413 31.3334 178.413C29.8348 178.413 28.6156 179.652 28.6156 181.176C28.6156 182.699 29.8348 183.939 31.3334 183.939C32.8319 183.939 34.0511 182.699 34.0511 181.176ZM29.8451 181.176C29.8451 180.342 30.5128 179.663 31.3333 179.663C32.1538 179.663 32.8214 180.342 32.8214 181.176C32.8214 182.01 32.1538 182.689 31.3333 182.689C30.5128 182.689 29.8451 182.01 29.8451 181.176Z" fill="#4C5865"/>
</g>
<defs>
<clipPath id="clip0_6053_45">
<rect width="48" height="48" fill="white" transform="translate(20 20)"/>
</clipPath>
<clipPath id="clip1_6053_45">
<rect width="48" height="48" fill="white" transform="translate(20 88)"/>
</clipPath>
<clipPath id="clip2_6053_45">
<rect width="48" height="48" fill="white" transform="translate(20 156)"/>
</clipPath>
</defs>
</svg>
