<svg width="244" height="292" viewBox="0 0 244 292" fill="none" xmlns="http://www.w3.org/2000/svg">
<rect x="0.5" y="0.5" width="243" height="291" rx="4.5" stroke="#9747FF" stroke-dasharray="10 5"/>
<g filter="url(#filter0_d_6053_8)">
<rect x="20" y="20" width="204" height="48" rx="24" fill="url(#paint0_linear_6053_8)"/>
<path d="M70.94 44.176C71.804 43.712 72.38 42.864 72.38 41.712C72.38 39.936 70.94 38.8 68.252 38.8H63.004V50H68.572C71.452 50 72.956 48.88 72.956 46.96C72.956 45.504 72.14 44.56 70.94 44.176ZM68.028 40.432C69.468 40.432 70.284 40.944 70.284 41.984C70.284 43.008 69.468 43.52 68.028 43.52H65.084V40.432H68.028ZM68.444 48.368H65.084V45.136H68.444C70.012 45.136 70.86 45.632 70.86 46.752C70.86 47.872 70.012 48.368 68.444 48.368ZM81.2559 41.456V45.776C81.2559 47.488 80.3119 48.352 78.9199 48.352C77.6559 48.352 76.9199 47.616 76.9199 46.064V41.456H74.9199V46.336C74.9199 48.912 76.4079 50.112 78.5999 50.112C79.7039 50.112 80.7119 49.696 81.3519 48.912V50H83.2559V41.456H81.2559ZM90.4505 48.112C90.1465 48.352 89.7465 48.464 89.3305 48.464C88.5625 48.464 88.1465 48.016 88.1465 47.184V43.12H90.4345V41.52H88.1465V39.568H86.1465V41.52H84.7385V43.12H86.1465V47.232C86.1465 49.12 87.2185 50.112 89.0905 50.112C89.8105 50.112 90.5305 49.92 91.0105 49.536L90.4505 48.112ZM97.0286 48.112C96.7246 48.352 96.3246 48.464 95.9086 48.464C95.1406 48.464 94.7246 48.016 94.7246 47.184V43.12H97.0126V41.52H94.7246V39.568H92.7246V41.52H91.3166V43.12H92.7246V47.232C92.7246 49.12 93.7966 50.112 95.6686 50.112C96.3886 50.112 97.1086 49.92 97.5886 49.536L97.0286 48.112ZM102.793 50.112C105.449 50.112 107.353 48.288 107.353 45.728C107.353 43.168 105.449 41.36 102.793 41.36C100.169 41.36 98.2486 43.168 98.2486 45.728C98.2486 48.288 100.169 50.112 102.793 50.112ZM102.793 48.4C101.353 48.4 100.265 47.36 100.265 45.728C100.265 44.096 101.353 43.056 102.793 43.056C104.249 43.056 105.337 44.096 105.337 45.728C105.337 47.36 104.249 48.4 102.793 48.4ZM114.113 41.36C112.865 41.36 111.825 41.776 111.169 42.56V41.456H109.265V50H111.265V45.68C111.265 43.968 112.225 43.104 113.649 43.104C114.929 43.104 115.681 43.84 115.681 45.36V50H117.681V45.104C117.681 42.528 116.161 41.36 114.113 41.36ZM129.488 41.36C128.24 41.36 127.2 41.776 126.544 42.56V41.456H124.64V50H126.64V45.68C126.64 43.968 127.6 43.104 129.024 43.104C130.304 43.104 131.056 43.84 131.056 45.36V50H133.056V45.104C133.056 42.528 131.536 41.36 129.488 41.36ZM139.511 50.112C142.167 50.112 144.071 48.288 144.071 45.728C144.071 43.168 142.167 41.36 139.511 41.36C136.887 41.36 134.967 43.168 134.967 45.728C134.967 48.288 136.887 50.112 139.511 50.112ZM139.511 48.4C138.071 48.4 136.983 47.36 136.983 45.728C136.983 44.096 138.071 43.056 139.511 43.056C140.967 43.056 142.055 44.096 142.055 45.728C142.055 47.36 140.967 48.4 139.511 48.4ZM147.888 42.704V41.456H145.984V50H147.984V45.856C147.984 44.112 148.944 43.216 150.464 43.216C150.608 43.216 150.752 43.232 150.928 43.264V41.36C149.504 41.36 148.464 41.808 147.888 42.704ZM163.409 41.36C162.049 41.36 160.897 41.904 160.209 42.784C159.617 41.824 158.577 41.36 157.329 41.36C156.161 41.36 155.169 41.776 154.529 42.544V41.456H152.625V50H154.625V45.664C154.625 43.968 155.521 43.104 156.849 43.104C158.065 43.104 158.769 43.84 158.769 45.36V50H160.769V45.664C160.769 43.968 161.681 43.104 162.993 43.104C164.209 43.104 164.913 43.84 164.913 45.36V50H166.913V45.104C166.913 42.528 165.473 41.36 163.409 41.36ZM172.732 41.36C171.356 41.36 170.028 41.712 169.116 42.416L169.9 43.872C170.54 43.344 171.532 43.024 172.492 43.024C173.916 43.024 174.62 43.712 174.62 44.88V45.008H172.412C169.82 45.008 168.86 46.128 168.86 47.552C168.86 49.04 170.092 50.112 172.044 50.112C173.324 50.112 174.252 49.696 174.732 48.96V50H176.62V44.992C176.62 42.528 175.196 41.36 172.732 41.36ZM172.46 48.656C171.436 48.656 170.828 48.192 170.828 47.472C170.828 46.848 171.196 46.336 172.556 46.336H174.62V47.328C174.284 48.208 173.436 48.656 172.46 48.656ZM179.187 50H181.187V38.128H179.187V50Z" fill="white"/>
</g>
<rect x="20" y="88" width="204" height="48" rx="24" fill="#FF5722"/>
<path d="M77.1275 112.176C77.9915 111.712 78.5675 110.864 78.5675 109.712C78.5675 107.936 77.1275 106.8 74.4395 106.8H69.1915V118H74.7595C77.6395 118 79.1435 116.88 79.1435 114.96C79.1435 113.504 78.3275 112.56 77.1275 112.176ZM74.2155 108.432C75.6555 108.432 76.4715 108.944 76.4715 109.984C76.4715 111.008 75.6555 111.52 74.2155 111.52H71.2715V108.432H74.2155ZM74.6315 116.368H71.2715V113.136H74.6315C76.1995 113.136 77.0475 113.632 77.0475 114.752C77.0475 115.872 76.1995 116.368 74.6315 116.368ZM87.4434 109.456V113.776C87.4434 115.488 86.4994 116.352 85.1074 116.352C83.8434 116.352 83.1074 115.616 83.1074 114.064V109.456H81.1074V114.336C81.1074 116.912 82.5954 118.112 84.7874 118.112C85.8914 118.112 86.8994 117.696 87.5394 116.912V118H89.4434V109.456H87.4434ZM96.638 116.112C96.334 116.352 95.934 116.464 95.518 116.464C94.75 116.464 94.334 116.016 94.334 115.184V111.12H96.622V109.52H94.334V107.568H92.334V109.52H90.926V111.12H92.334V115.232C92.334 117.12 93.406 118.112 95.278 118.112C95.998 118.112 96.718 117.92 97.198 117.536L96.638 116.112ZM103.216 116.112C102.912 116.352 102.512 116.464 102.096 116.464C101.328 116.464 100.912 116.016 100.912 115.184V111.12H103.2V109.52H100.912V107.568H98.9121V109.52H97.5041V111.12H98.9121V115.232C98.9121 117.12 99.9841 118.112 101.856 118.112C102.576 118.112 103.296 117.92 103.776 117.536L103.216 116.112ZM108.98 118.112C111.636 118.112 113.54 116.288 113.54 113.728C113.54 111.168 111.636 109.36 108.98 109.36C106.356 109.36 104.436 111.168 104.436 113.728C104.436 116.288 106.356 118.112 108.98 118.112ZM108.98 116.4C107.54 116.4 106.452 115.36 106.452 113.728C106.452 112.096 107.54 111.056 108.98 111.056C110.436 111.056 111.524 112.096 111.524 113.728C111.524 115.36 110.436 116.4 108.98 116.4ZM120.301 109.36C119.053 109.36 118.013 109.776 117.357 110.56V109.456H115.453V118H117.453V113.68C117.453 111.968 118.413 111.104 119.837 111.104C121.117 111.104 121.869 111.84 121.869 113.36V118H123.869V113.104C123.869 110.528 122.349 109.36 120.301 109.36ZM135.676 109.36C134.492 109.36 133.484 109.744 132.828 110.448V106.128H130.828V118H132.828V113.68C132.828 111.968 133.788 111.104 135.212 111.104C136.492 111.104 137.244 111.84 137.244 113.36V118H139.244V113.104C139.244 110.528 137.724 109.36 135.676 109.36ZM145.699 118.112C148.355 118.112 150.259 116.288 150.259 113.728C150.259 111.168 148.355 109.36 145.699 109.36C143.075 109.36 141.155 111.168 141.155 113.728C141.155 116.288 143.075 118.112 145.699 118.112ZM145.699 116.4C144.259 116.4 143.171 115.36 143.171 113.728C143.171 112.096 144.259 111.056 145.699 111.056C147.155 111.056 148.243 112.096 148.243 113.728C148.243 115.36 147.155 116.4 145.699 116.4ZM158.017 109.456L155.281 115.792L152.625 109.456H150.545L154.209 118H156.273L159.937 109.456H158.017ZM168.985 113.776C168.985 111.104 167.161 109.36 164.665 109.36C162.121 109.36 160.249 111.184 160.249 113.728C160.249 116.272 162.105 118.112 164.969 118.112C166.441 118.112 167.641 117.632 168.409 116.72L167.337 115.488C166.729 116.112 165.977 116.416 165.017 116.416C163.529 116.416 162.489 115.616 162.249 114.368H168.953C168.969 114.176 168.985 113.936 168.985 113.776ZM164.665 110.96C165.977 110.96 166.921 111.808 167.081 113.04H162.233C162.425 111.792 163.369 110.96 164.665 110.96ZM172.81 110.704V109.456H170.906V118H172.906V113.856C172.906 112.112 173.866 111.216 175.386 111.216C175.53 111.216 175.674 111.232 175.85 111.264V109.36C174.426 109.36 173.386 109.808 172.81 110.704Z" fill="white"/>
<rect x="20" y="156" width="204" height="48" rx="24" fill="#FF7F22"/>
<path d="M75.7369 180.176C76.6009 179.712 77.1769 178.864 77.1769 177.712C77.1769 175.936 75.7369 174.8 73.0489 174.8H67.8009V186H73.3689C76.2489 186 77.7529 184.88 77.7529 182.96C77.7529 181.504 76.9369 180.56 75.7369 180.176ZM72.8249 176.432C74.2649 176.432 75.0809 176.944 75.0809 177.984C75.0809 179.008 74.2649 179.52 72.8249 179.52H69.8809V176.432H72.8249ZM73.2409 184.368H69.8809V181.136H73.2409C74.8089 181.136 75.6569 181.632 75.6569 182.752C75.6569 183.872 74.8089 184.368 73.2409 184.368ZM86.0528 177.456V181.776C86.0528 183.488 85.1088 184.352 83.7168 184.352C82.4528 184.352 81.7168 183.616 81.7168 182.064V177.456H79.7168V182.336C79.7168 184.912 81.2048 186.112 83.3968 186.112C84.5008 186.112 85.5088 185.696 86.1488 184.912V186H88.0528V177.456H86.0528ZM95.2474 184.112C94.9434 184.352 94.5434 184.464 94.1274 184.464C93.3594 184.464 92.9434 184.016 92.9434 183.184V179.12H95.2314V177.52H92.9434V175.568H90.9434V177.52H89.5354V179.12H90.9434V183.232C90.9434 185.12 92.0154 186.112 93.8874 186.112C94.6074 186.112 95.3274 185.92 95.8074 185.536L95.2474 184.112ZM101.826 184.112C101.522 184.352 101.122 184.464 100.706 184.464C99.9375 184.464 99.5215 184.016 99.5215 183.184V179.12H101.81V177.52H99.5215V175.568H97.5215V177.52H96.1135V179.12H97.5215V183.232C97.5215 185.12 98.5935 186.112 100.466 186.112C101.186 186.112 101.906 185.92 102.386 185.536L101.826 184.112ZM107.59 186.112C110.246 186.112 112.15 184.288 112.15 181.728C112.15 179.168 110.246 177.36 107.59 177.36C104.966 177.36 103.046 179.168 103.046 181.728C103.046 184.288 104.966 186.112 107.59 186.112ZM107.59 184.4C106.15 184.4 105.062 183.36 105.062 181.728C105.062 180.096 106.15 179.056 107.59 179.056C109.046 179.056 110.134 180.096 110.134 181.728C110.134 183.36 109.046 184.4 107.59 184.4ZM118.91 177.36C117.662 177.36 116.622 177.776 115.966 178.56V177.456H114.062V186H116.062V181.68C116.062 179.968 117.022 179.104 118.446 179.104C119.726 179.104 120.478 179.84 120.478 181.36V186H122.478V181.104C122.478 178.528 120.958 177.36 118.91 177.36ZM132.701 177.36C131.325 177.36 129.997 177.712 129.085 178.416L129.869 179.872C130.509 179.344 131.501 179.024 132.461 179.024C133.885 179.024 134.589 179.712 134.589 180.88V181.008H132.381C129.789 181.008 128.829 182.128 128.829 183.552C128.829 185.04 130.061 186.112 132.013 186.112C133.293 186.112 134.221 185.696 134.701 184.96V186H136.589V180.992C136.589 178.528 135.165 177.36 132.701 177.36ZM132.429 184.656C131.405 184.656 130.797 184.192 130.797 183.472C130.797 182.848 131.165 182.336 132.525 182.336H134.589V183.328C134.253 184.208 133.405 184.656 132.429 184.656ZM143.154 186.112C144.818 186.112 146.146 185.392 146.802 184.112L145.266 183.216C144.754 184.032 143.986 184.4 143.138 184.4C141.666 184.4 140.546 183.392 140.546 181.728C140.546 180.08 141.666 179.056 143.138 179.056C143.986 179.056 144.754 179.424 145.266 180.24L146.802 179.344C146.146 178.048 144.818 177.36 143.154 177.36C140.45 177.36 138.53 179.168 138.53 181.728C138.53 184.288 140.45 186.112 143.154 186.112ZM153.216 184.112C152.912 184.352 152.512 184.464 152.096 184.464C151.328 184.464 150.912 184.016 150.912 183.184V179.12H153.2V177.52H150.912V175.568H148.912V177.52H147.504V179.12H148.912V183.232C148.912 185.12 149.984 186.112 151.856 186.112C152.576 186.112 153.296 185.92 153.776 185.536L153.216 184.112ZM156.429 176.048C157.181 176.048 157.709 175.504 157.709 174.8C157.709 174.144 157.165 173.648 156.429 173.648C155.693 173.648 155.149 174.176 155.149 174.848C155.149 175.52 155.693 176.048 156.429 176.048ZM155.421 186H157.421V177.456H155.421V186ZM166.126 177.456L163.39 183.792L160.734 177.456H158.654L162.318 186H164.382L168.046 177.456H166.126ZM177.094 181.776C177.094 179.104 175.27 177.36 172.774 177.36C170.23 177.36 168.358 179.184 168.358 181.728C168.358 184.272 170.214 186.112 173.078 186.112C174.55 186.112 175.75 185.632 176.518 184.72L175.446 183.488C174.838 184.112 174.086 184.416 173.126 184.416C171.638 184.416 170.598 183.616 170.358 182.368H177.062C177.078 182.176 177.094 181.936 177.094 181.776ZM172.774 178.96C174.086 178.96 175.03 179.808 175.19 181.04H170.342C170.534 179.792 171.478 178.96 172.774 178.96Z" fill="white"/>
<rect x="20" y="224" width="204" height="48" rx="24" fill="#4C5865"/>
<path d="M70.9713 248.176C71.8353 247.712 72.4113 246.864 72.4113 245.712C72.4113 243.936 70.9713 242.8 68.2833 242.8H63.0353V254H68.6033C71.4833 254 72.9873 252.88 72.9873 250.96C72.9873 249.504 72.1713 248.56 70.9713 248.176ZM68.0593 244.432C69.4993 244.432 70.3153 244.944 70.3153 245.984C70.3153 247.008 69.4993 247.52 68.0593 247.52H65.1153V244.432H68.0593ZM68.4753 252.368H65.1153V249.136H68.4753C70.0433 249.136 70.8913 249.632 70.8913 250.752C70.8913 251.872 70.0433 252.368 68.4753 252.368ZM81.2871 245.456V249.776C81.2871 251.488 80.3431 252.352 78.9511 252.352C77.6871 252.352 76.9511 251.616 76.9511 250.064V245.456H74.9511V250.336C74.9511 252.912 76.4391 254.112 78.6311 254.112C79.7351 254.112 80.7431 253.696 81.3831 252.912V254H83.2871V245.456H81.2871ZM90.4818 252.112C90.1778 252.352 89.7778 252.464 89.3618 252.464C88.5938 252.464 88.1778 252.016 88.1778 251.184V247.12H90.4658V245.52H88.1778V243.568H86.1778V245.52H84.7698V247.12H86.1778V251.232C86.1778 253.12 87.2498 254.112 89.1218 254.112C89.8418 254.112 90.5618 253.92 91.0418 253.536L90.4818 252.112ZM97.0599 252.112C96.7559 252.352 96.3559 252.464 95.9399 252.464C95.1719 252.464 94.7559 252.016 94.7559 251.184V247.12H97.0439V245.52H94.7559V243.568H92.7559V245.52H91.3479V247.12H92.7559V251.232C92.7559 253.12 93.8279 254.112 95.6999 254.112C96.4199 254.112 97.1399 253.92 97.6199 253.536L97.0599 252.112ZM102.824 254.112C105.48 254.112 107.384 252.288 107.384 249.728C107.384 247.168 105.48 245.36 102.824 245.36C100.2 245.36 98.2799 247.168 98.2799 249.728C98.2799 252.288 100.2 254.112 102.824 254.112ZM102.824 252.4C101.384 252.4 100.296 251.36 100.296 249.728C100.296 248.096 101.384 247.056 102.824 247.056C104.28 247.056 105.368 248.096 105.368 249.728C105.368 251.36 104.28 252.4 102.824 252.4ZM114.144 245.36C112.896 245.36 111.856 245.776 111.2 246.56V245.456H109.296V254H111.296V249.68C111.296 247.968 112.256 247.104 113.68 247.104C114.96 247.104 115.712 247.84 115.712 249.36V254H117.712V249.104C117.712 246.528 116.192 245.36 114.144 245.36ZM131.039 242.128V246.512C130.367 245.728 129.391 245.36 128.287 245.36C125.807 245.36 123.967 247.072 123.967 249.728C123.967 252.384 125.807 254.112 128.287 254.112C129.455 254.112 130.447 253.712 131.119 252.896V254H133.039V242.128H131.039ZM128.527 252.4C127.087 252.4 125.983 251.36 125.983 249.728C125.983 248.096 127.087 247.056 128.527 247.056C129.967 247.056 131.071 248.096 131.071 249.728C131.071 251.36 129.967 252.4 128.527 252.4ZM136.664 244.048C137.416 244.048 137.944 243.504 137.944 242.8C137.944 242.144 137.4 241.648 136.664 241.648C135.928 241.648 135.384 242.176 135.384 242.848C135.384 243.52 135.928 244.048 136.664 244.048ZM135.656 254H137.656V245.456H135.656V254ZM142.921 254.112C145.321 254.112 146.793 253.072 146.793 251.472C146.793 248.128 141.513 249.664 141.513 247.936C141.513 247.376 142.089 246.976 143.305 246.976C144.121 246.976 144.937 247.136 145.753 247.616L146.521 246.096C145.753 245.632 144.457 245.36 143.321 245.36C141.017 245.36 139.561 246.416 139.561 248.032C139.561 251.44 144.841 249.904 144.841 251.536C144.841 252.128 144.313 252.48 143.049 252.48C141.977 252.48 140.825 252.128 140.073 251.632L139.305 253.152C140.073 253.696 141.497 254.112 142.921 254.112ZM151.779 245.36C150.403 245.36 149.075 245.712 148.163 246.416L148.947 247.872C149.587 247.344 150.579 247.024 151.539 247.024C152.963 247.024 153.667 247.712 153.667 248.88V249.008H151.459C148.867 249.008 147.907 250.128 147.907 251.552C147.907 253.04 149.139 254.112 151.091 254.112C152.371 254.112 153.299 253.696 153.779 252.96V254H155.667V248.992C155.667 246.528 154.243 245.36 151.779 245.36ZM151.507 252.656C150.483 252.656 149.875 252.192 149.875 251.472C149.875 250.848 150.243 250.336 151.603 250.336H153.667V251.328C153.331 252.208 152.483 252.656 151.507 252.656ZM162.97 245.36C161.882 245.36 160.922 245.728 160.234 246.496V242.128H158.234V254H160.138V252.896C160.81 253.712 161.802 254.112 162.97 254.112C165.466 254.112 167.306 252.384 167.306 249.728C167.306 247.072 165.466 245.36 162.97 245.36ZM162.746 252.4C161.306 252.4 160.202 251.36 160.202 249.728C160.202 248.096 161.306 247.056 162.746 247.056C164.186 247.056 165.274 248.096 165.274 249.728C165.274 251.36 164.186 252.4 162.746 252.4ZM169.203 254H171.203V242.128H169.203V254ZM181.86 249.776C181.86 247.104 180.036 245.36 177.54 245.36C174.996 245.36 173.124 247.184 173.124 249.728C173.124 252.272 174.98 254.112 177.844 254.112C179.316 254.112 180.516 253.632 181.284 252.72L180.212 251.488C179.604 252.112 178.852 252.416 177.892 252.416C176.404 252.416 175.364 251.616 175.124 250.368H181.828C181.844 250.176 181.86 249.936 181.86 249.776ZM177.54 246.96C178.852 246.96 179.796 247.808 179.956 249.04H175.108C175.3 247.792 176.244 246.96 177.54 246.96Z" fill="#7D90A6"/>
<defs>
<filter id="filter0_d_6053_8" x="10" y="18" width="224" height="68" filterUnits="userSpaceOnUse" color-interpolation-filters="sRGB">
<feFlood flood-opacity="0" result="BackgroundImageFix"/>
<feColorMatrix in="SourceAlpha" type="matrix" values="0 0 0 0 0 0 0 0 0 0 0 0 0 0 0 0 0 0 127 0" result="hardAlpha"/>
<feOffset dy="8"/>
<feGaussianBlur stdDeviation="5"/>
<feColorMatrix type="matrix" values="0 0 0 0 0 0 0 0 0 0 0 0 0 0 0 0 0 0 0.16 0"/>
<feBlend mode="normal" in2="BackgroundImageFix" result="effect1_dropShadow_6053_8"/>
<feBlend mode="normal" in="SourceGraphic" in2="effect1_dropShadow_6053_8" result="shape"/>
</filter>
<linearGradient id="paint0_linear_6053_8" x1="122" y1="20" x2="122" y2="68" gradientUnits="userSpaceOnUse">
<stop stop-color="#FF7F22"/>
<stop offset="1" stop-color="#FF5722"/>
</linearGradient>
</defs>
</svg>
