<svg width="143" height="196" viewBox="0 0 143 196" fill="none" xmlns="http://www.w3.org/2000/svg">
<rect x="0.5" y="0.5" width="142" height="195" rx="4.5" stroke="#9747FF" stroke-dasharray="10 5"/>
<mask id="path-2-inside-1_6053_156" fill="white">
<path d="M20 20H123V44H20V20Z"/>
</mask>
<path d="M123 43H20V45H123V43Z" fill="#FF7F22" fill-opacity="0.5" mask="url(#path-2-inside-1_6053_156)"/>
<path d="M29.776 26.8V31.616H23.344V26.8H21.744V38H23.344V33.008H29.776V38H31.376V26.8H29.776ZM37.637 29.44C36.277 29.44 35.013 29.824 34.133 30.528L34.773 31.68C35.429 31.12 36.453 30.768 37.461 30.768C38.981 30.768 39.733 31.52 39.733 32.816V33.12H37.301C34.773 33.12 33.893 34.24 33.893 35.6C33.893 37.072 35.109 38.096 37.029 38.096C38.357 38.096 39.301 37.648 39.813 36.88V38H41.269V32.88C41.269 30.56 39.957 29.44 37.637 29.44ZM37.285 36.912C36.117 36.912 35.413 36.384 35.413 35.536C35.413 34.816 35.845 34.224 37.365 34.224H39.733V35.408C39.349 36.384 38.437 36.912 37.285 36.912ZM51.7469 36.656V29.52H50.2109V36.656H45.5709V29.52H44.0349V38H51.6349V40.032H53.0909V36.656H51.7469ZM58.9058 32.4L56.6178 32.384V29.52H55.0818V38L58.6498 38.016C60.9218 38.032 62.2018 37.008 62.2018 35.168C62.2018 33.424 61.0498 32.416 58.9058 32.4ZM63.4658 38H65.0018V29.52H63.4658V38ZM58.5378 36.848L56.6178 36.832V33.504L58.5378 33.536C59.9298 33.552 60.6498 34.032 60.6498 35.152C60.6498 36.288 59.9138 36.864 58.5378 36.848ZM74.228 29.52H67.988V38H69.524V30.864H74.228V29.52ZM78.8245 29.44C77.4645 29.44 76.2005 29.824 75.3205 30.528L75.9605 31.68C76.6165 31.12 77.6405 30.768 78.6485 30.768C80.1685 30.768 80.9205 31.52 80.9205 32.816V33.12H78.4885C75.9605 33.12 75.0805 34.24 75.0805 35.6C75.0805 37.072 76.2965 38.096 78.2165 38.096C79.5445 38.096 80.4885 37.648 81.0005 36.88V38H82.4565V32.88C82.4565 30.56 81.1445 29.44 78.8245 29.44ZM78.4725 36.912C77.3045 36.912 76.6005 36.384 76.6005 35.536C76.6005 34.816 77.0325 34.224 78.5525 34.224H80.9205V35.408C80.5365 36.384 79.6245 36.912 78.4725 36.912ZM85.2224 38H86.7584V34.448H91.5904V38H93.1264V29.52H91.5904V33.12H86.7584V29.52H85.2224V38ZM96.113 38H97.521L102.705 31.824V38H104.241V29.52H102.849L97.649 35.696V29.52H96.113V38ZM113.542 29.52H105.798V30.864H108.902V38H110.438V30.864H113.542V29.52ZM119.033 32.4L116.649 32.384V29.52H115.113V38L118.793 38.016C121.065 38.032 122.345 37.008 122.345 35.168C122.345 33.424 121.193 32.416 119.033 32.4ZM118.665 36.848L116.649 36.832V33.504L118.665 33.536C120.073 33.552 120.777 34.032 120.777 35.152C120.777 36.288 120.057 36.864 118.665 36.848Z" fill="#FF7F22"/>
<path d="M123 87.5H20V88.5H123V87.5Z" fill="#FF5722"/>
<path d="M29.776 70.8V75.616H23.344V70.8H21.744V82H23.344V77.008H29.776V82H31.376V70.8H29.776ZM37.637 73.44C36.277 73.44 35.013 73.824 34.133 74.528L34.773 75.68C35.429 75.12 36.453 74.768 37.461 74.768C38.981 74.768 39.733 75.52 39.733 76.816V77.12H37.301C34.773 77.12 33.893 78.24 33.893 79.6C33.893 81.072 35.109 82.096 37.029 82.096C38.357 82.096 39.301 81.648 39.813 80.88V82H41.269V76.88C41.269 74.56 39.957 73.44 37.637 73.44ZM37.285 80.912C36.117 80.912 35.413 80.384 35.413 79.536C35.413 78.816 35.845 78.224 37.365 78.224H39.733V79.408C39.349 80.384 38.437 80.912 37.285 80.912ZM51.7469 80.656V73.52H50.2109V80.656H45.5709V73.52H44.0349V82H51.6349V84.032H53.0909V80.656H51.7469ZM58.9058 76.4L56.6178 76.384V73.52H55.0818V82L58.6498 82.016C60.9218 82.032 62.2018 81.008 62.2018 79.168C62.2018 77.424 61.0498 76.416 58.9058 76.4ZM63.4658 82H65.0018V73.52H63.4658V82ZM58.5378 80.848L56.6178 80.832V77.504L58.5378 77.536C59.9298 77.552 60.6498 78.032 60.6498 79.152C60.6498 80.288 59.9138 80.864 58.5378 80.848ZM74.228 73.52H67.988V82H69.524V74.864H74.228V73.52ZM78.8245 73.44C77.4645 73.44 76.2005 73.824 75.3205 74.528L75.9605 75.68C76.6165 75.12 77.6405 74.768 78.6485 74.768C80.1685 74.768 80.9205 75.52 80.9205 76.816V77.12H78.4885C75.9605 77.12 75.0805 78.24 75.0805 79.6C75.0805 81.072 76.2965 82.096 78.2165 82.096C79.5445 82.096 80.4885 81.648 81.0005 80.88V82H82.4565V76.88C82.4565 74.56 81.1445 73.44 78.8245 73.44ZM78.4725 80.912C77.3045 80.912 76.6005 80.384 76.6005 79.536C76.6005 78.816 77.0325 78.224 78.5525 78.224H80.9205V79.408C80.5365 80.384 79.6245 80.912 78.4725 80.912ZM85.2224 82H86.7584V78.448H91.5904V82H93.1264V73.52H91.5904V77.12H86.7584V73.52H85.2224V82ZM96.113 82H97.521L102.705 75.824V82H104.241V73.52H102.849L97.649 79.696V73.52H96.113V82ZM113.542 73.52H105.798V74.864H108.902V82H110.438V74.864H113.542V73.52ZM119.033 76.4L116.649 76.384V73.52H115.113V82L118.793 82.016C121.065 82.032 122.345 81.008 122.345 79.168C122.345 77.424 121.193 76.416 119.033 76.4ZM118.665 80.848L116.649 80.832V77.504L118.665 77.536C120.073 77.552 120.777 78.032 120.777 79.152C120.777 80.288 120.057 80.864 118.665 80.848Z" fill="#FF5722"/>
<path d="M29.776 114.8V119.616H23.344V114.8H21.744V126H23.344V121.008H29.776V126H31.376V114.8H29.776ZM37.637 117.44C36.277 117.44 35.013 117.824 34.133 118.528L34.773 119.68C35.429 119.12 36.453 118.768 37.461 118.768C38.981 118.768 39.733 119.52 39.733 120.816V121.12H37.301C34.773 121.12 33.893 122.24 33.893 123.6C33.893 125.072 35.109 126.096 37.029 126.096C38.357 126.096 39.301 125.648 39.813 124.88V126H41.269V120.88C41.269 118.56 39.957 117.44 37.637 117.44ZM37.285 124.912C36.117 124.912 35.413 124.384 35.413 123.536C35.413 122.816 35.845 122.224 37.365 122.224H39.733V123.408C39.349 124.384 38.437 124.912 37.285 124.912ZM51.7469 124.656V117.52H50.2109V124.656H45.5709V117.52H44.0349V126H51.6349V128.032H53.0909V124.656H51.7469ZM58.9058 120.4L56.6178 120.384V117.52H55.0818V126L58.6498 126.016C60.9218 126.032 62.2018 125.008 62.2018 123.168C62.2018 121.424 61.0498 120.416 58.9058 120.4ZM63.4658 126H65.0018V117.52H63.4658V126ZM58.5378 124.848L56.6178 124.832V121.504L58.5378 121.536C59.9298 121.552 60.6498 122.032 60.6498 123.152C60.6498 124.288 59.9138 124.864 58.5378 124.848ZM74.228 117.52H67.988V126H69.524V118.864H74.228V117.52ZM78.8245 117.44C77.4645 117.44 76.2005 117.824 75.3205 118.528L75.9605 119.68C76.6165 119.12 77.6405 118.768 78.6485 118.768C80.1685 118.768 80.9205 119.52 80.9205 120.816V121.12H78.4885C75.9605 121.12 75.0805 122.24 75.0805 123.6C75.0805 125.072 76.2965 126.096 78.2165 126.096C79.5445 126.096 80.4885 125.648 81.0005 124.88V126H82.4565V120.88C82.4565 118.56 81.1445 117.44 78.8245 117.44ZM78.4725 124.912C77.3045 124.912 76.6005 124.384 76.6005 123.536C76.6005 122.816 77.0325 122.224 78.5525 122.224H80.9205V123.408C80.5365 124.384 79.6245 124.912 78.4725 124.912ZM85.2224 126H86.7584V122.448H91.5904V126H93.1264V117.52H91.5904V121.12H86.7584V117.52H85.2224V126ZM96.113 126H97.521L102.705 119.824V126H104.241V117.52H102.849L97.649 123.696V117.52H96.113V126ZM113.542 117.52H105.798V118.864H108.902V126H110.438V118.864H113.542V117.52ZM119.033 120.4L116.649 120.384V117.52H115.113V126L118.793 126.016C121.065 126.032 122.345 125.008 122.345 123.168C122.345 121.424 121.193 120.416 119.033 120.4ZM118.665 124.848L116.649 124.832V121.504L118.665 121.536C120.073 121.552 120.777 122.032 120.777 123.152C120.777 124.288 120.057 124.864 118.665 124.848Z" fill="#FF7F22"/>
<path d="M29.776 158.8V163.616H23.344V158.8H21.744V170H23.344V165.008H29.776V170H31.376V158.8H29.776ZM37.637 161.44C36.277 161.44 35.013 161.824 34.133 162.528L34.773 163.68C35.429 163.12 36.453 162.768 37.461 162.768C38.981 162.768 39.733 163.52 39.733 164.816V165.12H37.301C34.773 165.12 33.893 166.24 33.893 167.6C33.893 169.072 35.109 170.096 37.029 170.096C38.357 170.096 39.301 169.648 39.813 168.88V170H41.269V164.88C41.269 162.56 39.957 161.44 37.637 161.44ZM37.285 168.912C36.117 168.912 35.413 168.384 35.413 167.536C35.413 166.816 35.845 166.224 37.365 166.224H39.733V167.408C39.349 168.384 38.437 168.912 37.285 168.912ZM51.7469 168.656V161.52H50.2109V168.656H45.5709V161.52H44.0349V170H51.6349V172.032H53.0909V168.656H51.7469ZM58.9058 164.4L56.6178 164.384V161.52H55.0818V170L58.6498 170.016C60.9218 170.032 62.2018 169.008 62.2018 167.168C62.2018 165.424 61.0498 164.416 58.9058 164.4ZM63.4658 170H65.0018V161.52H63.4658V170ZM58.5378 168.848L56.6178 168.832V165.504L58.5378 165.536C59.9298 165.552 60.6498 166.032 60.6498 167.152C60.6498 168.288 59.9138 168.864 58.5378 168.848ZM74.228 161.52H67.988V170H69.524V162.864H74.228V161.52ZM78.8245 161.44C77.4645 161.44 76.2005 161.824 75.3205 162.528L75.9605 163.68C76.6165 163.12 77.6405 162.768 78.6485 162.768C80.1685 162.768 80.9205 163.52 80.9205 164.816V165.12H78.4885C75.9605 165.12 75.0805 166.24 75.0805 167.6C75.0805 169.072 76.2965 170.096 78.2165 170.096C79.5445 170.096 80.4885 169.648 81.0005 168.88V170H82.4565V164.88C82.4565 162.56 81.1445 161.44 78.8245 161.44ZM78.4725 168.912C77.3045 168.912 76.6005 168.384 76.6005 167.536C76.6005 166.816 77.0325 166.224 78.5525 166.224H80.9205V167.408C80.5365 168.384 79.6245 168.912 78.4725 168.912ZM85.2224 170H86.7584V166.448H91.5904V170H93.1264V161.52H91.5904V165.12H86.7584V161.52H85.2224V170ZM96.113 170H97.521L102.705 163.824V170H104.241V161.52H102.849L97.649 167.696V161.52H96.113V170ZM113.542 161.52H105.798V162.864H108.902V170H110.438V162.864H113.542V161.52ZM119.033 164.4L116.649 164.384V161.52H115.113V170L118.793 170.016C121.065 170.032 122.345 169.008 122.345 167.168C122.345 165.424 121.193 164.416 119.033 164.4ZM118.665 168.848L116.649 168.832V165.504L118.665 165.536C120.073 165.552 120.777 166.032 120.777 167.152C120.777 168.288 120.057 168.864 118.665 168.848Z" fill="#4C5865"/>
</svg>
