<svg width="260" height="260" viewBox="0 0 260 260" fill="none" xmlns="http://www.w3.org/2000/svg">
<g filter="url(#filter0_d_8_190)">
<path d="M158 89.58V82H155.333V88.7733C154.892 88.7058 154.447 88.6708 154 88.6667H151.333V82H148.667V88.6667H144.667V82H142V88.6667H138V82H135.333V88.6667H131.333V82H128.667V88.6667H124.667V82H122V88.6667H118V82H115.333V88.6667H111.333V82H108.667V88.6667H106C105.553 88.6708 105.108 88.7058 104.667 88.7733V82H102V89.58C100.065 90.5046 98.5046 92.0646 97.58 94H90V96.6667H96.7733C96.7058 97.1083 96.6708 97.5533 96.6667 98V100.667H90V103.333H96.6667V107.333H90V110H96.6667V114H90V116.667H96.6667V120.667H90V123.333H96.6667V127.333H90V130H96.6667V134H90V136.667H96.6667V140.667H90V143.333H96.6667V146C96.6708 146.447 96.7058 146.892 96.7733 147.333H90V150H97.58C98.5046 151.935 100.065 153.495 102 154.42V162H104.667V155.227C105.108 155.294 105.553 155.329 106 155.333H108.667V162H111.333V155.333H115.333V162H118V155.333H122V162H124.667V155.333H128.667V162H131.333V155.333H135.333V162H138V155.333H142V162H144.667V155.333H148.667V162H151.333V155.333H154C154.447 155.329 154.892 155.294 155.333 155.227V162H158V154.42C159.935 153.495 161.495 151.935 162.42 150H170V147.333H163.227C163.294 146.892 163.329 146.447 163.333 146V143.333H170V140.667H163.333V136.667H170V134H163.333V130H170V127.333H163.333V123.333H170V120.667H163.333V116.667H170V114H163.333V110H170V107.333H163.333V103.333H170V100.667H163.333V98C163.329 97.5533 163.294 97.1083 163.227 96.6667H170V94H162.42C161.495 92.0646 159.935 90.5046 158 89.58ZM160.667 146C160.662 149.68 157.68 152.662 154 152.667H106C102.32 152.662 99.3379 149.68 99.3333 146V98C99.3379 94.32 102.32 91.3379 106 91.3333H154C157.68 91.3379 160.662 94.32 160.667 98V146Z" fill="#FF7F22"/>
<path d="M152.667 95.3333H107.333C105.125 95.3333 103.333 97.1246 103.333 99.3333V144.667C103.333 146.875 105.125 148.667 107.333 148.667H152.667C154.875 148.667 156.667 146.875 156.667 144.667V99.3333C156.667 97.1246 154.875 95.3333 152.667 95.3333ZM154 144.667C154 145.403 153.403 146 152.667 146H107.333C106.597 146 106 145.403 106 144.667V99.3333C106 98.5967 106.597 98 107.333 98H152.667C153.403 98 154 98.5967 154 99.3333V144.667Z" fill="#FF7F22"/>
<path d="M148.667 100.667H151.333V103.333H148.667V100.667Z" fill="#FF7F22"/>
<path d="M108.667 140.667H111.333V143.333H108.667V140.667Z" fill="#FF7F22"/>
<path d="M108.667 103.333V107.333H111.333V103.333H115.333V100.667H111.333C109.86 100.667 108.667 101.86 108.667 103.333Z" fill="#FF7F22"/>
<path d="M148.667 140.667H144.667V143.333H151.333V136.667H148.667V140.667Z" fill="#FF7F22"/>
</g>
<defs>
<filter id="filter0_d_8_190" x="0" y="0" width="260" height="260" filterUnits="userSpaceOnUse" color-interpolation-filters="sRGB">
<feFlood flood-opacity="0" result="BackgroundImageFix"/>
<feColorMatrix in="SourceAlpha" type="matrix" values="0 0 0 0 0 0 0 0 0 0 0 0 0 0 0 0 0 0 127 0" result="hardAlpha"/>
<feOffset dy="8"/>
<feGaussianBlur stdDeviation="45"/>
<feColorMatrix type="matrix" values="0 0 0 0 1 0 0 0 0 0.497333 0 0 0 0 0.133333 0 0 0 1 0"/>
<feBlend mode="normal" in2="BackgroundImageFix" result="effect1_dropShadow_8_190"/>
<feBlend mode="normal" in="SourceGraphic" in2="effect1_dropShadow_8_190" result="shape"/>
</filter>
</defs>
</svg>
