<svg width="268" height="268" viewBox="0 0 268 268" fill="none" xmlns="http://www.w3.org/2000/svg">
<g filter="url(#filter0_d_8_130)">
<path fill-rule="evenodd" clip-rule="evenodd" d="M175 126C175 148.644 156.644 167 134 167C111.356 167 93 148.644 93 126C93 103.356 111.356 85 134 85C156.644 85 175 103.356 175 126ZM178 126C178 150.301 158.301 170 134 170C109.699 170 90 150.301 90 126C90 101.699 109.699 82 134 82C158.301 82 178 101.699 178 126ZM156.063 117.443C155.984 117.776 155.887 118.104 155.773 118.427L155.594 118.409C155.545 118.345 155.501 118.276 155.464 118.204C155.274 117.726 154.766 117.374 154.287 117.442C154.15 117.46 153.935 117.602 153.923 117.704C153.915 117.767 153.906 117.831 153.898 117.895C153.846 118.274 153.793 118.666 153.887 119.017C154.075 119.718 154.382 120.392 154.69 121.058C154.762 121.214 154.887 121.35 155.032 121.507C155.107 121.589 155.188 121.676 155.269 121.776L155.964 120.294C156.027 120.512 156.088 120.716 156.147 120.912L156.147 120.914C156.277 121.348 156.394 121.737 156.486 122.131C156.659 122.887 156.486 123.096 155.768 123.157C155.768 123.468 155.766 123.779 155.765 124.09C155.761 124.849 155.757 125.607 155.776 126.364C155.793 126.874 155.857 127.382 155.966 127.881C155.99 128.002 156.245 128.166 156.383 128.158C156.926 128.14 157.466 128.069 157.995 127.946L158.035 127.936C158.857 127.722 159.706 127.501 159.933 126.469C159.958 126.393 159.999 126.325 160.054 126.267C160.108 126.21 160.175 126.165 160.248 126.135C160.875 125.937 161.076 125.402 160.589 124.981C160.091 124.55 159.921 123.985 159.751 123.419C159.69 123.218 159.63 123.016 159.554 122.821C159.515 122.706 159.523 122.58 159.577 122.471C159.693 122.271 159.827 122.081 159.961 121.891L159.962 121.89C159.992 121.847 160.023 121.803 160.053 121.76C160.075 121.729 160.096 121.698 160.117 121.667C160.179 121.746 160.252 121.823 160.326 121.901C160.489 122.072 160.652 122.243 160.681 122.434C160.751 122.891 161.038 123.147 161.325 123.402C161.385 123.455 161.444 123.507 161.502 123.562C161.836 123.88 162.101 123.794 162.246 123.319C162.392 122.844 162.523 122.366 162.626 121.883C162.681 121.621 162.708 121.353 162.736 121.085V121.084C162.748 120.967 162.76 120.85 162.774 120.734L162.589 120.68C162.479 120.818 162.381 120.963 162.294 121.116C162.247 121.212 162.212 121.316 162.176 121.419L162.176 121.419C162.117 121.594 162.058 121.767 161.94 121.904C161.752 122.121 161.41 122.401 161.198 122.357C160.869 122.288 160.858 121.909 160.999 121.587C161.03 121.515 161.051 121.44 161.073 121.364L161.073 121.364C161.098 121.275 161.123 121.187 161.162 121.106C161.887 119.635 161.968 118.142 161.341 116.619C161.242 116.377 161.148 116.133 161.055 115.888L161.054 115.887L161.054 115.887L161.054 115.887L161.054 115.886C161.006 115.76 160.957 115.633 160.908 115.506L161.031 115.461C161.815 116.965 162.401 118.564 162.774 120.219C162.841 119.037 162.847 117.913 162.556 116.797C162.366 116.109 162.22 115.409 162.119 114.702C161.906 113.046 161.267 111.473 160.267 110.136C160.013 109.79 159.846 109.925 159.68 110.147C159.446 110.454 159.182 110.588 158.798 110.454C158.746 110.436 158.683 110.447 158.594 110.462L158.594 110.462C158.544 110.47 158.485 110.48 158.415 110.487C158.559 111.086 158.692 111.642 158.826 112.196L158.838 112.249L158.7 112.285L158.669 112.193L158.632 112.085L158.628 112.073C158.571 111.903 158.513 111.733 158.458 111.562C158.282 111.02 157.651 110.766 157.343 111.176C156.871 111.804 156.41 112.469 156.358 113.307C156.354 113.39 156.351 113.475 156.349 113.559V113.56C156.342 113.837 156.335 114.119 156.235 114.359C155.92 115.122 155.975 115.221 156.818 115.36C157.106 115.407 157.382 115.599 157.635 115.774L157.674 115.802C157.768 115.866 157.843 116.132 157.793 116.192C157.678 116.304 157.522 116.365 157.361 116.363C156.399 116.343 156.245 116.474 156.063 117.443ZM160.392 114.488L160.23 114.605C159.943 114.208 159.657 113.811 159.373 113.415L159.535 113.298C159.82 113.694 160.106 114.091 160.392 114.488ZM152.671 114.19C152.697 113.962 152.718 113.751 152.737 113.551V113.551C152.779 113.122 152.815 112.749 152.892 112.388C152.963 112.092 153.11 111.819 153.32 111.599C153.935 110.952 154.448 110.266 154.756 109.398C155.045 108.565 155.689 107.996 156.646 108.017C156.913 108.017 157.261 108.172 157.41 108.375C157.505 108.503 157.373 108.899 157.231 109.093C156.862 109.585 156.656 110.137 156.447 110.695C156.39 110.849 156.332 111.003 156.271 111.157C155.94 111.983 155.831 112.842 155.722 113.701C155.642 114.335 155.561 114.969 155.392 115.588C155.304 115.91 155.044 116.415 154.832 116.431L154.792 116.435C154.171 116.484 153.424 116.542 153.11 115.798C152.939 115.398 152.846 114.969 152.765 114.598L152.765 114.598C152.733 114.451 152.703 114.314 152.671 114.19ZM152.055 143.222C152.066 143.121 152.078 143.009 152.098 142.886C152.065 142.902 152.036 142.917 152.009 142.93L151.97 142.949L151.942 142.962L151.899 142.982C151.818 143.02 151.782 143.037 151.756 143.064C151.139 143.694 150.523 144.323 149.915 144.961C149.62 145.27 149.329 145.584 149.039 145.898C148.487 146.495 147.936 147.092 147.351 147.653C146.898 148.089 146.429 148.509 145.96 148.928C144.819 149.948 143.679 150.967 142.772 152.219C142.449 152.688 142.159 153.178 141.905 153.687C141.873 153.746 142.112 154.024 142.12 154.019C142.28 153.927 142.46 153.873 142.642 153.818C143.035 153.698 143.43 153.578 143.611 153.078C143.7 152.831 144.034 152.642 144.296 152.495C144.437 152.416 144.595 152.363 144.753 152.311C144.946 152.246 145.139 152.182 145.301 152.069C145.896 151.647 146.469 151.194 147.018 150.713L147.032 150.701C147.4 150.386 147.78 150.06 148.053 149.668C148.269 149.356 148.449 149.022 148.629 148.687L148.63 148.687L148.63 148.687L148.63 148.686L148.63 148.686L148.63 148.686L148.63 148.686L148.63 148.686L148.63 148.686L148.63 148.686L148.63 148.685C148.78 148.408 148.929 148.131 149.098 147.867C149.434 147.36 149.797 146.872 150.188 146.406C150.299 146.27 150.429 146.147 150.559 146.024C150.738 145.855 150.917 145.686 151.044 145.483C151.385 144.916 151.688 144.326 151.952 143.718C152.015 143.58 152.033 143.42 152.055 143.222ZM110.437 113.741C110.507 113.746 110.566 113.747 110.616 113.747C110.702 113.747 110.76 113.748 110.797 113.776L110.921 113.868L111.046 113.962L111.047 113.962C111.47 114.278 111.895 114.595 112.291 114.944C112.479 115.11 112.394 115.3 112.132 115.407C111.732 115.573 111.335 115.747 110.938 115.92L110.938 115.92L110.937 115.92C110.54 116.094 110.143 116.267 109.743 116.433C109.231 116.647 108.508 116.195 108.302 115.55C108.115 114.967 108.404 114.517 109.03 114.332C109.244 114.268 109.448 114.171 109.653 114.074L109.653 114.074C109.758 114.024 109.862 113.975 109.968 113.93C110.105 113.871 110.243 113.817 110.345 113.777C110.38 113.763 110.412 113.751 110.437 113.741ZM147.588 154.94L148.249 154.021C148.581 153.561 148.913 153.1 149.244 152.639L149.152 152.526C149.044 152.554 148.94 152.596 148.844 152.652C148.163 153.185 147.488 153.716 146.83 154.269C146.64 154.429 146.461 154.61 146.283 154.79C145.958 155.12 145.634 155.449 145.241 155.643C144.655 155.934 144.614 156.354 144.567 156.826L144.567 156.831C144.564 156.862 144.561 156.893 144.557 156.925C144.542 157.067 144.537 157.21 144.532 157.354V157.354V157.354V157.355V157.355L144.528 157.457C144.526 157.516 144.523 157.576 144.519 157.635C144.495 158.014 144.745 158.083 144.965 157.911C145.453 157.543 145.904 157.129 146.312 156.674C146.644 156.29 146.936 155.87 147.228 155.451C147.347 155.28 147.466 155.109 147.588 154.94ZM149.445 150.067C149.329 150.233 149.224 150.389 149.125 150.537C148.963 150.777 148.815 150.996 148.654 151.206C148.301 151.664 147.936 152.111 147.548 152.539C147.498 152.596 147.401 152.612 147.304 152.627L147.265 152.634L147.248 152.637C147.223 152.641 147.197 152.647 147.174 152.653C147.157 152.591 147.13 152.523 147.102 152.454L147.102 152.454L147.102 152.454C147.043 152.306 146.984 152.158 147.032 152.067C147.243 151.667 147.493 151.257 147.824 150.959C148.099 150.711 148.427 150.522 148.755 150.333C148.882 150.26 149.008 150.187 149.132 150.111C149.16 150.095 149.196 150.092 149.26 150.087C149.305 150.083 149.365 150.078 149.445 150.067ZM110.836 118.871L110.643 119.475C110.685 120.2 110.814 120.319 111.531 120.243C111.698 120.227 111.863 120.189 112.02 120.129C112.134 120.083 112.288 119.992 112.305 119.897C112.323 119.803 112.21 119.657 112.117 119.579C111.912 119.404 111.692 119.247 111.458 119.112C111.257 119.016 111.049 118.936 110.836 118.871ZM115.003 118.858C115.074 118.614 115.144 118.373 115.213 118.134C115.296 117.849 115.378 117.567 115.459 117.286C116.018 117.37 116.506 117.799 116.478 118.148C116.438 118.68 116.007 118.9 115.003 118.858ZM114.382 119.244C114.29 119.232 114.19 119.219 114.079 119.201C114.092 119.283 114.095 119.372 114.098 119.459C114.105 119.642 114.112 119.817 114.201 119.9C114.353 120.036 114.667 120.024 114.906 120.003C115.004 119.994 115.171 119.788 115.156 119.695C115.137 119.62 115.102 119.549 115.053 119.488C115.004 119.428 114.942 119.379 114.871 119.345C114.73 119.288 114.573 119.268 114.382 119.244ZM113.073 117.801L113.073 117.8C113.145 117.487 113.212 117.198 113.608 117.165C113.638 117.165 113.746 117.392 113.71 117.473C113.693 117.518 113.678 117.569 113.664 117.621C113.594 117.872 113.516 118.148 113.046 117.914C113.055 117.876 113.064 117.838 113.073 117.801L113.073 117.801ZM117.389 132.859L116.711 132.509C116.672 133.001 116.87 133.159 117.211 133.1C117.263 133.091 117.3 133.02 117.337 132.949C117.354 132.917 117.371 132.885 117.389 132.859ZM131.414 111.707L131.414 111.706C131.33 111.606 131.277 111.541 131.289 111.524C131.467 111.281 131.663 111.053 131.874 110.839C131.969 110.895 132.055 110.964 132.13 111.045C131.989 111.298 131.829 111.544 131.601 111.895L131.585 111.919C131.523 111.837 131.463 111.766 131.414 111.707ZM107.131 108.702C107.188 108.547 107.254 108.397 107.33 108.251C109.618 106.615 114.685 104.348 125.387 104C125.108 104.197 124.815 104.4 124.522 104.605C123.154 105.557 121.771 106.519 121.73 106.822C121.714 106.945 121.911 107.159 122.056 107.222C122.165 107.27 122.36 107.166 122.497 107.093L122.5 107.091C122.557 107.061 122.61 107.008 122.661 106.957C122.733 106.886 122.803 106.816 122.88 106.812C123.14 106.797 123.401 106.799 123.663 106.802C124.031 106.805 124.399 106.809 124.761 106.764C125.325 106.694 125.88 106.518 126.426 106.346L126.472 106.331C126.612 106.287 126.739 106.206 126.867 106.125C126.981 106.052 127.095 105.98 127.218 105.933C127.816 105.706 128.419 105.491 129.021 105.276L129.022 105.275C129.237 105.198 129.453 105.121 129.668 105.044H138.078C138.216 105.2 138.352 105.358 138.488 105.515L138.488 105.516C138.834 105.916 139.179 106.317 139.554 106.685C139.82 106.95 140.175 107.137 140.515 107.311C140.57 107.34 140.671 107.281 140.778 107.219C140.827 107.19 140.877 107.161 140.925 107.139C140.825 107.052 140.716 106.974 140.614 106.901L140.614 106.901C140.4 106.748 140.21 106.612 140.162 106.437C140.033 105.918 139.775 105.44 139.411 105.048H140.862C145.103 105.919 147.623 107.156 149.081 108.171C149.127 108.516 149.144 108.869 149.162 109.223V109.224C149.166 109.31 149.17 109.397 149.175 109.484C149.184 109.668 149.243 109.851 149.303 110.034L149.303 110.035C149.327 110.107 149.35 110.179 149.37 110.252C149.386 110.308 149.41 110.364 149.433 110.42C149.476 110.522 149.519 110.624 149.514 110.725C149.497 111.059 149.469 111.392 149.441 111.725L149.441 111.726C149.413 112.053 149.385 112.379 149.368 112.706C149.353 113.014 149.278 113.18 148.946 113.295C148.312 113.513 148.051 114.43 148.315 115.292C148.362 115.445 148.41 115.598 148.459 115.751C148.518 115.935 148.577 116.12 148.632 116.305C148.643 116.369 148.637 116.435 148.617 116.496C148.579 116.658 148.536 116.819 148.493 116.98L148.493 116.981L148.493 116.981C148.398 117.339 148.303 117.698 148.259 118.063C148.21 118.473 148.074 118.774 147.755 119.018C147.436 119.262 147.378 119.491 147.569 119.897C147.702 120.179 147.696 120.535 147.691 120.877C147.689 120.948 147.688 121.019 147.689 121.089C147.689 121.359 147.674 121.629 147.66 121.9V121.9C147.644 122.204 147.628 122.508 147.632 122.812C147.644 123.795 147.674 124.779 147.735 125.76C147.746 125.938 147.833 126.113 147.919 126.287L147.919 126.287C147.951 126.351 147.983 126.415 148.011 126.478C148.095 126.671 148.193 126.862 148.292 127.053C148.51 127.477 148.728 127.901 148.795 128.347C148.843 128.669 148.698 129.02 148.552 129.371C148.483 129.535 148.415 129.699 148.366 129.861C148.317 130.026 148.276 130.195 148.234 130.363C148.223 130.409 148.212 130.455 148.2 130.5C148.192 130.534 148.183 130.568 148.175 130.602H149.004C149.012 130.652 149.026 130.708 149.041 130.769C149.077 130.917 149.12 131.091 149.096 131.254C149.03 131.7 149.266 131.909 149.593 132.109C149.737 132.196 149.936 132.348 149.943 132.479C149.993 133.463 150.015 134.449 150.02 135.435C150.025 136.347 149.799 137.219 149.574 138.088L149.574 138.088L149.574 138.089C149.511 138.332 149.448 138.575 149.39 138.819C149.372 138.893 149.373 138.971 149.373 139.049V139.049C149.373 139.126 149.373 139.203 149.356 139.278C149.312 139.479 149.271 139.68 149.23 139.881L149.23 139.882C149.104 140.502 148.977 141.121 148.777 141.716C148.697 141.961 148.44 142.154 148.196 142.339L148.196 142.34C148.127 142.391 148.06 142.442 147.997 142.494L147.94 142.541C147.671 142.759 147.399 142.98 147.392 143.388C147.39 143.439 147.376 143.488 147.353 143.534C147.33 143.579 147.297 143.618 147.257 143.65C146.539 144.089 146.153 144.761 145.88 145.607C145.84 145.493 145.805 145.388 145.771 145.288L145.771 145.288L145.771 145.288C145.701 145.08 145.64 144.899 145.566 144.723C145.435 144.416 145.279 144.405 145.039 144.66C144.804 144.909 144.546 145.137 144.288 145.365C144.184 145.457 144.08 145.55 143.977 145.643C143.952 145.666 143.923 145.687 143.894 145.708C143.836 145.749 143.778 145.79 143.753 145.848C143.492 146.446 142.967 146.643 142.432 146.842C142.36 146.869 142.287 146.896 142.215 146.924C142 147.008 141.802 147.133 141.604 147.258L141.604 147.258C141.486 147.333 141.368 147.408 141.246 147.474C141.017 147.598 140.785 147.716 140.553 147.834L140.551 147.835C140.367 147.929 140.183 148.022 140.001 148.119C139.946 148.148 139.889 148.176 139.832 148.203C139.662 148.285 139.492 148.367 139.369 148.492C138.897 148.979 138.93 149.108 139.545 149.364C139.853 149.494 139.853 149.727 139.726 149.948C139.613 150.157 139.448 150.334 139.246 150.46C138.863 150.666 138.567 150.893 138.351 151.312C138.271 151.465 138.026 151.532 137.781 151.599C137.668 151.63 137.555 151.661 137.457 151.7C137.366 151.737 137.275 151.779 137.184 151.821L137.184 151.821C136.994 151.908 136.805 151.995 136.606 152.039C136.182 152.133 135.739 152.221 135.31 152.197C134.947 152.175 134.756 152.206 134.527 152.546C134.285 152.906 133.872 153.184 133.478 153.394C133.368 153.453 133.179 153.368 132.995 153.286L132.994 153.285C132.922 153.253 132.851 153.221 132.786 153.199C132.712 153.174 132.639 153.136 132.567 153.099C132.439 153.034 132.313 152.969 132.19 152.977C131.8 153 131.411 153.047 131.022 153.094C130.758 153.126 130.495 153.158 130.23 153.182C129.961 153.221 129.688 153.226 129.418 153.197C128.683 153.086 128.615 152.969 128.863 152.285C128.966 152.001 128.863 151.866 128.635 151.696C128.414 151.526 128.214 151.328 128.013 151.13C127.901 151.019 127.789 150.908 127.672 150.802C127.551 150.703 127.423 150.611 127.291 150.527C127.271 150.573 127.246 150.619 127.221 150.665L127.221 150.665C127.167 150.763 127.114 150.861 127.11 150.961C127.1 151.297 127.097 151.633 127.095 151.969V151.97V151.97C127.093 152.334 127.091 152.697 127.078 153.06C127.078 153.141 127.01 153.218 126.942 153.296L126.942 153.296C126.91 153.332 126.879 153.368 126.854 153.405C126.828 153.383 126.798 153.362 126.767 153.342C126.701 153.297 126.635 153.253 126.617 153.194C126.495 152.79 126.379 152.385 126.263 151.98L126.263 151.979C126.132 151.525 126.002 151.07 125.863 150.618C125.729 150.179 125.761 149.9 126.298 149.812C126.665 149.752 126.962 149.595 126.874 149.087C126.805 148.679 127.083 148.603 127.367 148.526C127.465 148.499 127.564 148.472 127.65 148.432C127.338 147.876 127.664 147.748 127.984 147.622L127.985 147.622C128.113 147.572 128.241 147.521 128.326 147.444C128.607 147.205 128.921 147.007 129.259 146.858C129.533 146.728 129.825 146.642 130.126 146.602C130.526 146.55 130.715 146.351 130.694 145.962C130.679 145.538 130.642 145.114 130.582 144.694C130.533 144.386 130.377 144.272 129.997 144.359C129.478 144.479 128.936 144.409 128.555 143.943C128.463 143.829 128.339 143.656 128.366 143.542C128.471 143.087 128.611 142.641 128.786 142.209C128.991 141.718 129.408 141.6 129.914 141.612C130.112 141.617 130.335 141.473 130.509 141.345C131.248 140.806 132.091 140.516 132.949 140.245C133.297 140.121 133.63 139.96 133.943 139.764C134.742 139.299 135.67 139.105 136.589 139.213C136.737 139.245 136.883 139.291 137.023 139.35C137.08 139.367 137.136 139.384 137.193 139.402C137.246 139.418 137.298 139.434 137.351 139.45C137.705 139.558 138.058 139.666 138.423 139.747C138.526 139.77 138.721 139.645 138.772 139.542C138.799 139.475 138.81 139.401 138.804 139.329C138.798 139.256 138.775 139.186 138.737 139.124C138.225 138.54 137.712 137.963 137.152 137.421C137.036 137.309 136.85 137.263 136.669 137.218C136.655 137.215 136.642 137.212 136.63 137.209C136.582 137.197 136.534 137.185 136.489 137.171C136.11 137.056 135.727 136.952 135.345 136.848C135.303 136.836 135.26 136.822 135.216 136.807L135.215 136.807C135.093 136.766 134.969 136.724 134.859 136.745C134.33 136.848 133.808 136.981 133.289 137.125C133.129 137.17 132.971 137.228 132.814 137.286C132.629 137.355 132.445 137.423 132.255 137.469C131.598 137.643 130.932 137.782 130.261 137.887C130.001 137.923 129.735 137.907 129.468 137.89H129.468C129.291 137.88 129.113 137.869 128.937 137.874L128.804 137.877C127.401 137.909 126 137.942 124.598 138.005C124.118 138.026 123.839 137.96 123.77 137.389C123.738 137.127 123.588 136.877 123.439 136.629C123.384 136.538 123.33 136.447 123.281 136.356C123.174 136.151 123.057 135.952 122.941 135.753L122.937 135.746C122.91 135.7 122.884 135.655 122.857 135.609L122.853 135.602C122.696 135.331 122.515 135.017 122.153 135.213C121.854 135.375 121.559 135.598 121.729 136.07C121.916 136.606 122.067 137.154 122.182 137.71C122.306 138.269 121.893 138.428 121.473 138.499C121.034 138.574 120.794 138.261 120.7 137.903C120.579 137.446 120.488 136.981 120.398 136.515L120.398 136.514C120.357 136.303 120.316 136.092 120.272 135.882C120.265 135.798 120.239 135.716 120.197 135.643C119.965 135.34 120.01 135.014 120.27 134.822C120.499 134.673 120.775 134.613 121.046 134.651C121.548 134.727 121.807 134.52 121.72 133.989C121.693 133.827 121.656 133.666 121.619 133.505L121.619 133.505C121.557 133.234 121.494 132.964 121.482 132.691C121.489 132.57 121.521 132.451 121.576 132.342C121.63 132.233 121.707 132.137 121.8 132.059C122.388 131.594 122.415 131.565 122.014 130.917C121.973 130.825 121.939 130.731 121.912 130.634C122.224 130.554 122.54 130.492 122.859 130.448C123.465 130.4 124.072 130.368 124.679 130.337L124.679 130.337C124.853 130.328 125.027 130.319 125.201 130.31C125.243 130.308 125.287 130.303 125.331 130.298C125.558 130.272 125.789 130.246 125.876 130.568C125.982 130.963 125.723 131.044 125.428 131.137L125.408 131.143C125.168 131.23 124.942 131.353 124.739 131.509C124.644 131.575 124.534 131.741 124.558 131.827C124.584 131.887 124.625 131.94 124.677 131.981C124.729 132.022 124.791 132.049 124.856 132.06C124.972 132.056 125.088 132.054 125.205 132.052C125.667 132.044 126.133 132.036 126.57 131.921C127.083 131.785 127.572 131.491 128.037 131.21C128.247 131.083 128.427 130.914 128.569 130.714C128.71 130.514 128.808 130.287 128.858 130.047C129.176 128.768 128.653 127.754 127.954 126.774C127.945 126.761 127.923 126.758 127.89 126.753C127.871 126.751 127.849 126.748 127.824 126.742C127.8 126.808 127.774 126.873 127.749 126.937L127.749 126.937C127.608 127.292 127.473 127.632 127.604 128.085C127.686 128.37 127.501 128.867 127.261 129.07C127.021 129.273 126.513 129.378 126.236 129.264C125.103 128.78 123.887 128.521 122.655 128.5C122.531 128.5 122.408 128.459 122.284 128.418C122.178 128.383 122.071 128.347 121.963 128.338C121.381 128.288 120.796 128.394 120.269 128.645C119.653 128.925 118.988 129.079 118.312 129.1C117.636 129.121 116.963 129.009 116.331 128.768C115.676 128.522 115.424 127.78 115.618 127.079C115.694 126.806 115.747 126.526 115.801 126.246L115.801 126.246C115.863 125.921 115.925 125.597 116.022 125.284C116.113 124.989 116.234 124.703 116.354 124.417L116.354 124.417C116.503 124.062 116.651 123.708 116.745 123.34C116.877 122.819 116.937 122.276 116.996 121.737L116.996 121.737C117.016 121.553 117.036 121.369 117.059 121.186C117.095 120.893 117.133 120.6 117.171 120.307L117.172 120.302C117.302 119.287 117.433 118.271 117.521 117.252C117.548 116.78 117.489 116.306 117.347 115.854C116.955 114.505 116.473 113.188 115.411 112.196C115.285 112.079 115.111 112.018 114.934 111.957C114.811 111.914 114.687 111.871 114.578 111.809C114.391 111.706 114.152 111.55 114.099 111.37C113.894 110.68 113.29 110.036 112.622 109.968C112.433 109.949 112.243 109.926 112.052 109.903L112.051 109.903C111.372 109.821 110.687 109.739 110.027 109.824C109.426 109.901 108.747 110.114 108.317 110.707C108.158 110.927 107.844 111.212 107.638 111.184C107.184 111.123 106.879 110.538 106.937 110.115C106.96 109.954 106.973 109.79 106.986 109.627C107.012 109.311 107.037 108.996 107.131 108.702ZM134.763 110.129C134.573 110.131 134.384 110.12 134.195 110.098C132.978 109.845 131.76 109.962 130.543 110.079L130.503 110.083C130.203 110.111 129.898 110.088 129.594 110.064L129.594 110.064C129.455 110.054 129.317 110.043 129.18 110.037C129.175 110.009 129.171 109.98 129.167 109.952L129.167 109.952L129.166 109.949C129.162 109.922 129.158 109.894 129.153 109.866L129.732 109.353C129.687 109.341 129.65 109.328 129.618 109.317C129.561 109.297 129.522 109.283 129.49 109.293C128.089 109.727 126.926 110.481 126.145 111.76C126.07 111.885 125.981 112.001 125.893 112.117L125.893 112.117L125.893 112.117C125.794 112.247 125.696 112.376 125.615 112.516C125.527 112.676 125.482 112.856 125.482 113.038C125.482 113.294 125.497 113.551 125.511 113.807L125.512 113.808C125.523 114.008 125.535 114.208 125.539 114.408C125.556 115.154 126.034 115.537 126.667 115.14C127.13 114.85 127.368 115.018 127.664 115.228C127.697 115.251 127.73 115.274 127.764 115.298C128.425 115.751 128.844 115.7 129.302 115.117C129.233 115.074 129.159 115.039 129.082 115.015C128.72 114.958 128.395 114.762 128.177 114.468C127.958 114.175 127.863 113.808 127.912 113.445C127.983 112.813 128.425 112.467 128.889 112.142C129.234 111.901 129.516 111.96 129.833 112.27C130.231 112.664 130.674 113.008 131.154 113.296C131.424 113.436 131.738 113.467 132.03 113.384C132.122 113.355 132.215 113.327 132.309 113.299C132.934 113.115 133.574 112.926 133.846 112.195C133.859 112.162 133.893 112.136 133.923 112.113L133.923 112.113C133.932 112.106 133.941 112.099 133.949 112.093C134.233 111.847 134.486 111.856 134.74 112.154C135.404 112.934 136.12 113.036 136.968 112.547C136.981 112.44 137 112.338 137.018 112.24L137.018 112.24C137.057 112.036 137.092 111.851 137.053 111.682C136.967 111.299 136.837 110.924 136.708 110.55C136.656 110.402 136.605 110.254 136.557 110.106C136.557 110.093 136.531 110.083 136.516 110.076L134.134 109.256L134.066 109.376L134.763 110.129Z" fill="#FF7F22"/>
</g>
<defs>
<filter id="filter0_d_8_130" x="0" y="0" width="268" height="268" filterUnits="userSpaceOnUse" color-interpolation-filters="sRGB">
<feFlood flood-opacity="0" result="BackgroundImageFix"/>
<feColorMatrix in="SourceAlpha" type="matrix" values="0 0 0 0 0 0 0 0 0 0 0 0 0 0 0 0 0 0 127 0" result="hardAlpha"/>
<feOffset dy="8"/>
<feGaussianBlur stdDeviation="45"/>
<feColorMatrix type="matrix" values="0 0 0 0 1 0 0 0 0 0.497333 0 0 0 0 0.133333 0 0 0 1 0"/>
<feBlend mode="normal" in2="BackgroundImageFix" result="effect1_dropShadow_8_130"/>
<feBlend mode="normal" in="SourceGraphic" in2="effect1_dropShadow_8_130" result="shape"/>
</filter>
</defs>
</svg>
